:SAMPLES-PER-SECOND 30
:FULLY-SPECIFIED
:DEGREES
39
root  -3.68222 40.7895 1.50658 179.381 -46.822 -176.325
RightUpLeg  -6.13772 3.49523 1.35837
RightLeg  -0.292197 18.5758 -0.940599
RightFoot  4.00777 -1.03875 7.90084
RightToes  -3.13588e-008 1.75238e-005 3.56266e-009
Spine  2.32844 -9.65838 -10.2164
Spine1  0.383099 -12.6899 15.712
HEad  -8.59198 -7.33434 -0.540232
LeftShoulder1  2.24769 -4.23377 -22.7651
LeftArm  -27.3846 -25.4621 -54.2964
LeftForeArm  37.7624 -64.3515 -19.8633
LeftHand  -0.592093 -1.76232 9.78919
RightShoulder  1.63273 2.27577 22.0396
RightArm  -22.1105 -7.62434 43.9685
RightForeArm  43.5255 75.7565 45.1017
RightHand  -0.216215 6.94724 -2.38431
LeftUpLeg  5.26919 3.69654 1.66925
LeftLeg  -1.86054 55.0686 -2.42148
LeftFoot  -3.0454 0.28927 -3.73656
LeftToes  4.76812e-008 1.47286e-008 1.3089e-009
40
root  -3.68214 40.8063 1.45689 179.443 -47.8545 -176.199
RightUpLeg  -5.79678 3.30433 1.32293
RightLeg  -1.04299 17.526 -0.965162
RightFoot  4.15472 -1.00989 7.62077
RightToes  -3.13588e-008 1.75238e-005 3.56266e-009
Spine  1.8578 -9.81606 -10.2429
Spine1  0.819912 -12.8913 15.7977
HEad  -8.48459 -7.6189 -0.534241
LeftShoulder1  2.20275 -4.07935 -22.7632
LeftArm  -27.1941 -25.5275 -54.1449
LeftForeArm  37.9067 -64.702 -20.2174
LeftHand  -0.603143 -1.94827 9.72882
RightShoulder  1.62471 2.23484 22.1054
RightArm  -22.4549 -8.10923 43.7945
RightForeArm  43.5482 75.7439 45.0216
RightHand  -0.217253 7.13981 -2.36698
LeftUpLeg  5.12468 3.7021 1.88593
LeftLeg  -2.12973 53.9886 -2.64219
LeftFoot  -2.93408 0.282208 -3.60091
LeftToes  4.76812e-008 1.47286e-008 1.3089e-009
41
root  -3.70272 40.822 1.41408 179.402 -49.3285 -175.893
RightUpLeg  -5.51437 3.06079 1.24536
RightLeg  -1.64087 16.1543 -0.809831
RightFoot  4.20223 -1.00651 7.57517
RightToes  -3.13588e-008 1.75238e-005 3.56266e-009
Spine  1.37565 -10.1247 -10.1494
Spine1  1.1956 -13.246 15.8964
HEad  -8.48418 -7.59237 -0.512433
LeftShoulder1  2.10467 -3.76737 -22.6509
LeftArm  -27.1485 -25.8237 -54.4286
LeftForeArm  37.9181 -64.8744 -20.4038
LeftHand  -0.599245 -1.86566 9.77475
RightShoulder  1.57324 2.06973 22.0183
RightArm  -22.6588 -8.67775 43.7575
RightForeArm  43.9699 75.796 45.1647
RightHand  -0.226043 6.81541 -2.49594
LeftUpLeg  4.77709 3.6167 2.13053
LeftLeg  -1.98865 52.5328 -2.36884
LeftFoot  -2.7988 0.275156 -3.46475
LeftToes  4.76812e-008 1.47286e-008 1.3089e-009
42
root  -3.68098 40.8377 1.34148 179.269 -51.4319 -175.571
RightUpLeg  -5.13624 2.86834 1.2162
RightLeg  -2.18804 13.9994 -0.654494
RightFoot  4.12228 -0.988186 7.47643
RightToes  -3.13588e-008 1.75238e-005 3.56266e-009
Spine  0.683498 -10.5672 -10.3689
Spine1  1.98407 -13.771 15.9298
HEad  -8.25263 -7.8202 -0.0561362
LeftShoulder1  2.06601 -3.70969 -22.3291
LeftArm  -27.2147 -26.0199 -54.6098
LeftForeArm  37.8217 -65.0288 -20.5884
LeftHand  -0.58475 -1.54105 9.96162
RightShoulder  1.60462 2.15245 22.1692
RightArm  -23.0533 -8.86301 43.3995
RightForeArm  43.0256 75.5965 44.3885
RightHand  -0.223805 6.86131 -2.46695
LeftUpLeg  4.31326 3.6688 2.57188
LeftLeg  -1.48859 50.2354 -1.93923
LeftFoot  -2.7148 0.276026 -3.45245
LeftToes  4.76812e-008 1.47286e-008 1.3089e-009
43
root  -3.63777 40.8577 1.27382 179.388 -54.1194 -175.674
RightUpLeg  -4.83908 2.57998 0.951092
RightLeg  -2.34809 11.4762 -0.538765
RightFoot  3.82324 -0.949422 7.31899
RightToes  -3.13588e-008 1.75238e-005 3.56266e-009
Spine  0.676517 -10.8222 -11.35
Spine1  1.89195 -14.1613 16.9137
HEad  -7.96114 -8.01016 -0.0968293
LeftShoulder1  2.13471 -3.91576 -22.4692
LeftArm  -27.1029 -25.7616 -54.4694
LeftForeArm  37.789 -65.376 -20.9856
LeftHand  -0.57827 -1.74533 9.5863
RightShoulder  1.61388 2.25868 21.7805
RightArm  -23.3746 -9.08691 43.3227
RightForeArm  43.0001 75.4102 43.4012
RightHand  -0.208978 6.75529 -2.34288
LeftUpLeg  3.88583 3.678 2.81734
LeftLeg  -1.23361 47.4057 -1.8859
LeftFoot  -2.62123 0.279503 -3.47525
LeftToes  4.76812e-008 1.47286e-008 1.3089e-009
44
root  -3.59624 40.8769 1.18677 179.359 -57.5778 -175.727
RightUpLeg  -4.49325 2.30146 0.714439
RightLeg  -2.16486 8.26116 -0.389611
RightFoot  3.34033 -0.862425 6.86291
RightToes  -3.13588e-008 1.75238e-005 3.56266e-009
Spine  1.014 -11.1431 -11.9515
Spine1  1.36917 -14.5018 17.455
HEad  -7.49626 -8.8898 0.365194
LeftShoulder1  2.1078 -3.81698 -22.4904
LeftArm  -26.6263 -25.5411 -54.344
LeftForeArm  37.8874 -65.4745 -21.0872
LeftHand  -0.559975 -1.93059 9.06923
RightShoulder  1.67674 2.50322 21.6769
RightArm  -23.2592 -8.53491 43.2013
RightForeArm  42.6524 75.3564 43.2453
RightHand  -0.291932 6.61441 -3.16216
LeftUpLeg  3.55616 3.57904 3.05575
LeftLeg  -1.28896 43.9899 -1.95021
LeftFoot  -2.50172 0.275261 -3.36641
LeftToes  4.76812e-008 1.47286e-008 1.3089e-009
45
root  -3.53018 40.8911 1.09245 179.264 -61.3156 -175.727
RightUpLeg  -4.2115 1.95556 0.493176
RightLeg  -1.8252 4.91438 -0.154578
RightFoot  2.86088 -0.742698 6.11178
RightToes  -3.13588e-008 1.75238e-005 3.56266e-009
Spine  0.849075 -11.0113 -12.1913
Spine1  1.39149 -14.3504 17.5148
HEad  -7.2189 -9.50274 0.126261
LeftShoulder1  2.11142 -3.81025 -22.5684
LeftArm  -26.2222 -25.8761 -54.618
LeftForeArm  38.1501 -65.2503 -20.7934
LeftHand  -0.573854 -2.22379 8.9499
RightShoulder  1.70529 2.59705 21.7125
RightArm  -23.1711 -7.24903 43.0564
RightForeArm  42.9117 75.2554 42.647
RightHand  -0.188347 6.81159 -2.13656
LeftUpLeg  3.08025 3.34371 3.23231
LeftLeg  -1.14276 40.4993 -1.68723
LeftFoot  -2.20339 0.269213 -3.20278
LeftToes  4.76812e-008 1.47286e-008 1.3089e-009
46
root  -3.48027 40.9097 0.971339 179.117 -65.5777 -175.831
RightUpLeg  -3.52302 1.40894 0.183729
RightLeg  -1.80798 1.29601 0.1223
RightFoot  2.44243 -0.626865 5.32157
RightToes  -3.13588e-008 1.75238e-005 3.56266e-009
Spine  0.484778 -10.7402 -11.6323
Spine1  1.52222 -13.8391 16.3491
HEad  -7.1161 -9.82925 0.11867
LeftShoulder1  2.02843 -3.66664 -21.9571
LeftArm  -25.9917 -25.7472 -55.3608
LeftForeArm  38.2471 -65.2942 -20.8306
LeftHand  -0.589598 -2.34069 9.06031
RightShoulder  1.81039 2.87856 22.1569
RightArm  -23.074 -5.8829 42.7371
RightForeArm  43.3483 75.105 41.7802
RightHand  -0.287901 6.94233 -3.05909
LeftUpLeg  2.79427 3.05359 3.34971
LeftLeg  -1.26967 36.5739 -1.58122
LeftFoot  -1.83426 0.263606 -3.03906
LeftToes  4.76812e-008 1.47286e-008 1.3089e-009
47
root  -3.42408 40.9322 0.83825 179.047 -70.1465 -176.005
RightUpLeg  -2.71811 0.963891 -0.0654438
RightLeg  -2.03046 -2.67699 0.283317
RightFoot  2.1456 -0.551939 4.78829
RightToes  -3.13588e-008 1.75238e-005 3.56266e-009
Spine  -0.18766 -10.1032 -10.9762
Spine1  1.93249 -12.9807 15.2367
HEad  -6.44377 -10.3678 0.46148
LeftShoulder1  2.03174 -3.70416 -21.8482
LeftArm  -26.0938 -25.8071 -55.1985
LeftForeArm  38.3324 -65.2648 -20.7863
LeftHand  -0.592873 -2.40821 9.0351
RightShoulder  1.80452 2.86342 22.128
RightArm  -23.1037 -3.99987 42.8974
RightForeArm  41.2599 74.7145 40.6497
RightHand  -0.373967 6.86858 -3.88466
LeftUpLeg  2.47318 2.73103 3.42547
LeftLeg  -1.53641 32.4308 -1.56405
LeftFoot  -1.31057 0.25014 -2.76046
LeftToes  4.76812e-008 1.47286e-008 1.3089e-009
48
root  -3.36403 40.9485 0.682311 179.131 -75.1554 -176.216
RightUpLeg  -1.93928 0.247951 -0.410603
RightLeg  -2.34849 -6.78598 0.75343
RightFoot  1.80557 -0.462637 4.11874
RightToes  -3.13588e-008 1.75238e-005 3.56266e-009
Spine  -1.00027 -9.2742 -10.3022
Spine1  2.38911 -11.9344 14.2199
HEad  -6.17008 -10.6058 0.308178
LeftShoulder1  2.02735 -3.67052 -21.921
LeftArm  -26.5517 -26.1395 -54.6884
LeftForeArm  38.4411 -65.0457 -20.525
LeftHand  -0.59093 -2.39642 9.0151
RightShoulder  1.7792 2.80815 21.9654
RightArm  -22.9402 -2.37927 43.0219
RightForeArm  40.4796 74.5217 40.0587
RightHand  -0.408132 6.84629 -4.20994
LeftUpLeg  1.84118 2.33196 3.48184
LeftLeg  -1.55308 27.9316 -1.32116
LeftFoot  -0.774926 0.250692 -2.6608
LeftToes  4.76812e-008 1.47286e-008 1.3089e-009
49
root  -3.31664 40.9588 0.49946 179.46 -80.2011 -176.789
RightUpLeg  -1.17742 -0.391335 -0.732035
RightLeg  -2.32276 -10.971 1.10273
RightFoot  1.29036 -0.396825 3.66343
RightToes  -3.13588e-008 1.75238e-005 3.56266e-009
Spine  -1.26699 -8.21467 -9.37761
Spine1  2.11131 -10.5265 12.8444
HEad  -5.34703 -9.88157 0.49572
LeftShoulder1  1.96324 -3.52784 -21.5634
LeftArm  -27.5444 -25.8879 -54.3109
LeftForeArm  38.1907 -64.9692 -20.473
LeftHand  -0.538433 -2.22337 8.41771
RightShoulder  1.84041 3.02624 21.9609
RightArm  -23.2102 -0.773343 42.8714
RightForeArm  40.0822 74.116 38.5435
RightHand  -0.204517 7.00661 -2.26843
LeftUpLeg  1.40634 1.98036 3.47748
LeftLeg  -1.7465 23.3927 -1.22299
LeftFoot  -0.240711 0.271123 -2.77478
LeftToes  4.76812e-008 1.47286e-008 1.3089e-009
50
root  -3.30383 40.9588 0.310668 -178.077 -85.3182 -179.621
RightUpLeg  -0.118636 -0.877975 -0.844286
RightLeg  -2.49968 -15.3644 1.43834
RightFoot  0.845207 -0.33666 3.20487
RightToes  -3.13588e-008 1.75238e-005 3.56266e-009
Spine  -1.91986 -7.00234 -8.37582
Spine1  2.71737 -9.07242 11.5015
HEad  -5.32312 -9.43427 0.620577
LeftShoulder1  2.00741 -3.66984 -21.6305
LeftArm  -28.7162 -25.8663 -53.1722
LeftForeArm  37.7671 -64.8949 -20.4464
LeftHand  -0.52894 -1.74992 8.77696
RightShoulder  1.86639 3.18655 21.6499
RightArm  -23.5025 1.31495 43.2957
RightForeArm  38.7805 73.5242 36.7342
RightHand  -0.200495 6.95835 -2.23484
LeftUpLeg  1.01471 1.7582 3.57647
LeftLeg  -1.6957 18.6803 -1.00678
LeftFoot  0.110808 0.308123 -3.08172
LeftToes  4.76812e-008 1.47286e-008 1.3089e-009
51
root  -3.29577 40.9497 0.106767 6.68695 -89.5813 -4.5098
RightUpLeg  0.563396 -1.47128 -1.0126
RightLeg  -2.5256 -19.642 1.86141
RightFoot  0.320607 -0.278461 2.74833
RightToes  -3.13588e-008 1.75238e-005 3.56266e-009
Spine  -2.81244 -5.61604 -7.26171
Spine1  3.43843 -7.38005 9.93381
HEad  -5.14491 -8.98122 0.909366
LeftShoulder1  1.93117 -3.46434 -21.3431
LeftArm  -29.5247 -26.1658 -53.074
LeftForeArm  37.7647 -64.817 -20.3611
LeftHand  -0.498395 -1.52519 8.53738
RightShoulder  1.87459 3.2096 21.6783
RightArm  -23.4833 3.12826 43.6876
RightForeArm  38.511 73.164 35.6054
RightHand  -0.231968 7.06279 -2.51413
LeftUpLeg  0.333609 1.26293 3.46509
LeftLeg  -1.68732 14.31 -0.639282
LeftFoot  0.622235 0.337489 -3.25534
LeftToes  4.76812e-008 1.47286e-008 1.3089e-009
52
root  -3.31313 40.939 -0.0882251 -5.77237 -84.8694 7.83234
RightUpLeg  1.14071 -1.94735 -1.10855
RightLeg  -2.41014 -23.584 2.1003
RightFoot  -0.191746 -0.246619 2.51062
RightToes  -3.13588e-008 1.75238e-005 3.56266e-009
Spine  -2.99458 -4.08847 -5.69254
Spine1  3.21199 -5.43566 7.99168
HEad  -4.83461 -8.59387 1.15128
LeftShoulder1  1.86659 -3.30169 -21.0385
LeftArm  -30.23 -25.9552 -52.4996
LeftForeArm  37.7771 -64.938 -20.4926
LeftHand  -0.506198 -1.73597 8.42444
RightShoulder  1.87587 3.23802 21.571
RightArm  -22.8378 4.3745 44.4227
RightForeArm  38.8831 73.0808 35.2509
RightHand  -0.24184 7.16268 -2.59069
LeftUpLeg  -0.231938 0.761106 3.30833
LeftLeg  -1.76081 10.3457 -0.321381
LeftFoot  1.04176 0.420351 -3.93293
LeftToes  4.76812e-008 1.47286e-008 1.3089e-009
